<?xml version="1.0" encoding="UTF-8" standalone="no"?>
<!-- Created with Inkscape (http://www.inkscape.org/) -->

<svg
   xmlns:dc="http://purl.org/dc/elements/1.1/"
   xmlns:cc="http://creativecommons.org/ns#"
   xmlns:rdf="http://www.w3.org/1999/02/22-rdf-syntax-ns#"
   xmlns:svg="http://www.w3.org/2000/svg"
   xmlns="http://www.w3.org/2000/svg"
   xmlns:sodipodi="http://sodipodi.sourceforge.net/DTD/sodipodi-0.dtd"
   xmlns:inkscape="http://www.inkscape.org/namespaces/inkscape"
   width="40mm"
   height="28mm"
   viewBox="0 0 40.000241 28.00003"
   version="1.1"
   id="svg8"
   inkscape:version="0.92.1 r15371"
   sodipodi:docname="logoLLink.svg">
  <defs
     id="defs2" />
  <sodipodi:namedview
     id="base"
     pagecolor="#ffffff"
     bordercolor="#666666"
     borderopacity="1.0"
     inkscape:pageopacity="0.0"
     inkscape:pageshadow="2"
     inkscape:zoom="0.49497475"
     inkscape:cx="726.76915"
     inkscape:cy="178.74246"
     inkscape:document-units="mm"
     inkscape:current-layer="layer1"
     showgrid="false"
     inkscape:window-width="970"
     inkscape:window-height="788"
     inkscape:window-x="186"
     inkscape:window-y="244"
     inkscape:window-maximized="0"
     units="mm" />
  <metadata
     id="metadata5">
    <rdf:RDF>
      <cc:Work
         rdf:about="">
        <dc:format>image/svg+xml</dc:format>
        <dc:type
           rdf:resource="http://purl.org/dc/dcmitype/StillImage" />
        <dc:title></dc:title>
      </cc:Work>
    </rdf:RDF>
  </metadata>
  <g
     inkscape:label="Layer 1"
     inkscape:groupmode="layer"
     id="layer1"
     transform="translate(-10.41325,-151.74509)">
    <path
       style="fill:#000000;stroke-width:0.05523084"
       d="m 35.872241,174.68946 c -0.0991,-0.0404 -0.112616,-0.19262 -0.0647,-0.7286 l 0.02581,-0.28883 0.208772,0.0482 c 0.177539,0.041 0.229835,0.0221 0.349544,-0.12696 0.267844,-0.33321 0.261441,-0.2324 0.274268,-4.31815 l 0.0116,-3.69815 -0.09287,-0.0676 c -0.0511,-0.0373 -0.184285,-0.0961 -0.296011,-0.13101 l -0.203146,-0.0634 -0.01217,-0.43171 -0.01221,-0.43172 h 0.653338 0.653337 l -0.0114,4.3735 -0.0114,4.37349 -0.09654,0.39473 c -0.10605,0.43358 -0.306282,0.80204 -0.52952,0.97442 -0.146578,0.11313 -0.679696,0.18985 -0.846718,0.1217 z m -13.907105,-2.90225 c -0.391749,-0.2055 -0.660145,-0.65946 -0.81545,-1.37929 -0.08945,-0.41458 -0.09522,-0.54893 -0.108624,-2.52577 -0.01032,-1.52014 -0.02718,-2.0946 -0.06204,-2.11248 -0.02632,-0.0135 -0.125601,-0.0635 -0.220571,-0.11118 l -0.172669,-0.0867 v -0.59763 -0.59764 h 0.751624 0.75163 v 2.5137 c 0,2.7907 0.0137,2.96463 0.258549,3.28718 0.243469,0.32072 0.718864,0.19274 0.990775,-0.26672 0.09037,-0.15272 0.09141,-0.177 0.09141,-2.13341 0,-1.51629 -0.01186,-1.98628 -0.05079,-2.01041 -0.02795,-0.0173 -0.128488,-0.0682 -0.223458,-0.11313 l -0.172669,-0.0817 v -0.59775 -0.59776 l 0.761783,-3e-5 0.761784,-3e-5 -0.01109,2.94149 c -0.0062,1.65878 0.0046,2.97075 0.0252,3.00858 0.01998,0.037 0.125524,0.10907 0.234557,0.16036 l 0.19824,0.0932 0.0118,0.61472 0.0118,0.61472 h -0.687983 c -0.747904,0 -0.736626,0.006 -0.737858,-0.43786 -3.22e-4,-0.11013 -0.0117,-0.2771 -0.02529,-0.37094 -0.02371,-0.16358 -0.03296,-0.15638 -0.22423,0.17425 -0.109723,0.18966 -0.282683,0.41284 -0.384354,0.49595 -0.232165,0.18978 -0.702424,0.2472 -0.952087,0.11629 z m 5.18214,0.027 c -0.177928,-0.0804 -0.433636,-0.33911 -0.536388,-0.54268 -0.221001,-0.43784 -0.234027,-0.59773 -0.255867,-3.14094 l -0.02034,-2.36506 -0.274242,-0.0222 -0.274242,-0.0222 v -0.66888 -0.66887 l 0.274242,-0.0222 0.274242,-0.0222 0.0114,-0.92197 0.0114,-0.92197 0.516751,0.0209 0.516756,0.0209 0.0114,0.91975 0.0114,0.91975 h 0.364405 0.364409 v 0.67573 0.67573 h -0.365673 -0.365656 v 2.06969 c 0,1.33898 0.01548,2.1232 0.04389,2.22126 0.06614,0.22838 0.287258,0.36998 0.495406,0.31726 l 0.178413,-0.0452 0.04978,0.65737 c 0.02739,0.36155 0.03501,0.6836 0.01697,0.71567 -0.09585,0.17036 -0.78533,0.2691 -1.048519,0.15024 z m 3.396876,-0.0105 c -0.09813,-0.0356 -0.29339,-0.16418 -0.433895,-0.28568 -0.672537,-0.58159 -1.006714,-1.7309 -1.006714,-3.46226 0,-1.35195 0.172582,-2.1876 0.601347,-2.91178 0.387609,-0.65465 0.776542,-0.88376 1.398293,-0.82371 0.259019,0.0249 0.466892,0.0915 0.614793,0.19676 0.478328,0.34033 0.852083,1.08706 1.019612,2.0371 0.109288,0.61975 0.144778,1.73904 0.07825,2.46791 -0.182919,2.00413 -1.150275,3.18865 -2.271686,2.78166 z m 0.839186,-1.61989 c 0.308361,-0.42213 0.432828,-1.12857 0.408212,-2.31691 -0.01502,-0.72511 -0.03265,-0.89712 -0.129243,-1.26205 -0.154514,-0.58361 -0.29804,-0.7564 -0.655152,-0.78864 -0.24559,-0.0222 -0.303926,-9.4e-4 -0.425806,0.15141 -0.168321,0.2111 -0.309845,0.57967 -0.365973,0.95309 -0.0642,0.42711 -0.05161,2.03811 0.01881,2.40696 0.143123,0.74964 0.399551,1.07965 0.803814,1.0345 0.153992,-0.0171 0.272223,-0.0783 0.345343,-0.17836 z m -19.085771,1.03665 v -0.58937 l 0.274242,-0.10517 0.274242,-0.10517 0.01058,-3.50703 c 0.01201,-3.99216 0.05318,-3.55833 -0.359095,-3.78458 l -0.199952,-0.10967 v -0.59774 -0.59775 l 1.371215,5.8e-4 c 0.754164,2.7e-4 1.486826,0.0351 1.628129,0.0777 1.035096,0.31039 1.63396,1.72234 1.510546,3.56139 -0.08703,1.2968 -0.602349,2.25606 -1.374439,2.55848 -0.164744,0.0644 -0.514272,0.10667 -0.890726,0.10757 l -0.619585,0.001 v 1.15699 1.15698 l 0.284401,0.0886 0.2844,0.0886 v 0.59386 0.59388 h -1.096968 -1.096973 z m 2.956471,-4.70745 c 0.524722,-0.40518 0.688382,-1.67186 0.333115,-2.5782 -0.183743,-0.46873 -0.441403,-0.6092 -1.11749,-0.6092 h -0.546957 v 1.6518 1.65179 h 0.590418 c 0.440993,0 0.628502,-0.0294 0.740914,-0.11613 z m 2.447114,4.71119 v -0.58563 l 0.24377,-0.093 0.243772,-0.093 v -3.90364 c 0,-3.05647 -0.01104,-3.91032 -0.05079,-3.9344 -0.02795,-0.0168 -0.155913,-0.069 -0.284401,-0.11554 l -0.233612,-0.0847 v -0.63287 -0.63288 l 0.822726,-1e-5 h 0.822727 l -0.01078,4.61427 c -0.01217,5.21142 -0.04635,4.70651 0.325639,4.80957 l 0.192982,0.0535 v 0.59214 0.59212 h -1.036032 -1.036025 z m 16.49516,-0.0901 v -0.67573 H 34.541656 34.887 v 0.67573 0.67573 h -0.345344 -0.345344 z m 4.469133,0.27193 v -0.4038 l 0.294559,-0.10471 0.294555,-0.10472 0.01047,-4.24992 0.01047,-4.24993 -0.294892,-0.10457 -0.294886,-0.10456 -0.01211,-0.46786 -0.01211,-0.46785 h 0.67201 0.67201 l 0.01047,4.82232 0.01047,4.82229 0.294554,0.10472 0.294554,0.10472 v 0.40379 0.4038 h -0.975065 -0.975083 z m -2.03142,-9.61959 v -0.71329 h 0.365655 0.365656 v 0.71329 0.71325 H 36.99968 36.634025 Z"
       id="path21"
       inkscape:connector-curvature="0" />
    <g
       transform="matrix(0.17290842,0,0,0.31953493,0.60801633,115.19966)"
       id="layer1-0"
       inkscape:label="Layer 1">
      <g
         transform="matrix(0.66542322,0,0,0.66542322,140.88249,87.132493)"
         id="g51">
        <circle
           style="fill:#d66661;stroke:#c93d39;stroke-width:3"
           cx="183.41008"
           cy="134.56754"
           r="16.5"
           id="circle18" />
        <circle
           style="fill:#aa7dc0;stroke:#945bb0;stroke-width:3"
           cx="183.41008"
           cy="114.32245"
           r="16.5"
           id="circle22" />
        <circle
           style="fill:#6bab5b;stroke:#3b972e;stroke-width:3"
           cx="183.41008"
           cy="94.077362"
           r="16.5"
           id="circle20" />
      </g>
    </g>
  </g>
</svg>
