<?xml version="1.0" encoding="UTF-8" standalone="no"?>
<!-- Created with Inkscape (http://www.inkscape.org/) -->

<svg
   xmlns:dc="http://purl.org/dc/elements/1.1/"
   xmlns:cc="http://creativecommons.org/ns#"
   xmlns:rdf="http://www.w3.org/1999/02/22-rdf-syntax-ns#"
   xmlns:svg="http://www.w3.org/2000/svg"
   xmlns="http://www.w3.org/2000/svg"
   xmlns:sodipodi="http://sodipodi.sourceforge.net/DTD/sodipodi-0.dtd"
   xmlns:inkscape="http://www.inkscape.org/namespaces/inkscape"
   width="882.23627"
   height="123.61533"
   viewBox="0 0 233.42503 32.706592"
   version="1.1"
   id="svg8"
   inkscape:version="0.92.1 r15371"
   sodipodi:docname="logoSm.svg">
  <defs
     id="defs2" />
  <sodipodi:namedview
     id="base"
     pagecolor="#ffffff"
     bordercolor="#666666"
     borderopacity="1.0"
     inkscape:pageopacity="0.0"
     inkscape:pageshadow="2"
     inkscape:zoom="0.49497475"
     inkscape:cx="726.76915"
     inkscape:cy="178.74246"
     inkscape:document-units="mm"
     inkscape:current-layer="layer1"
     showgrid="false"
     inkscape:window-width="970"
     inkscape:window-height="788"
     inkscape:window-x="186"
     inkscape:window-y="244"
     inkscape:window-maximized="0"
     units="px" />
  <metadata
     id="metadata5">
    <rdf:RDF>
      <cc:Work
         rdf:about="">
        <dc:format>image/svg+xml</dc:format>
        <dc:type
           rdf:resource="http://purl.org/dc/dcmitype/StillImage" />
        <dc:title></dc:title>
      </cc:Work>
    </rdf:RDF>
  </metadata>
  <g
     inkscape:label="Layer 1"
     inkscape:groupmode="layer"
     id="layer1"
     transform="translate(-10.41325,-147.0385)">
    <path
       style="fill:#000000;stroke-width:0.07950673"
       d="m 219.82833,178.9068 c -0.19393,-0.0428 -0.22038,-0.20398 -0.12661,-0.77154 l 0.0505,-0.30586 0.40855,0.0511 c 0.34743,0.0434 0.44977,0.0233 0.68403,-0.1344 0.52415,-0.35285 0.51162,-0.2461 0.53672,-4.57266 l 0.0227,-3.91612 -0.18173,-0.0716 c -0.1,-0.0394 -0.36063,-0.10183 -0.57927,-0.13873 l -0.39754,-0.0671 -0.0238,-0.45716 -0.0239,-0.45717 h 1.27853 1.27853 l -0.0223,4.63127 -0.0223,4.63127 -0.18893,0.41799 c -0.20753,0.45914 -0.59937,0.84932 -1.03623,1.03186 -0.28684,0.11985 -1.33011,0.20103 -1.65696,0.12893 z m -27.21511,-3.07332 c -0.76662,-0.2176 -1.29185,-0.69832 -1.59577,-1.46057 -0.17505,-0.43902 -0.18635,-0.58128 -0.21257,-2.67465 -0.0202,-1.60973 -0.0532,-2.21805 -0.12142,-2.23699 -0.0515,-0.0143 -0.24579,-0.0673 -0.43164,-0.11779 l -0.3379,-0.0918 v -0.63286 -0.63286 h 1.47087 1.47088 v 2.66186 c 0,2.95518 0.0268,3.13936 0.50596,3.48093 0.47645,0.33962 1.40676,0.20409 1.93887,-0.28245 0.17685,-0.16171 0.17889,-0.18743 0.17889,-2.25914 0,-1.60567 -0.0232,-2.10336 -0.0994,-2.1289 -0.0547,-0.0183 -0.25144,-0.0722 -0.43729,-0.11983 l -0.3379,-0.0865 v -0.63299 -0.63299 l 1.49075,-3e-5 1.49075,-3e-5 -0.0217,3.11485 c -0.0122,1.75656 0.009,3.14584 0.0493,3.18591 0.0391,0.0391 0.24564,0.1155 0.45901,0.16981 l 0.38794,0.0987 0.0231,0.65095 0.0231,0.65095 h -1.34632 c -1.46359,0 -1.44152,0.007 -1.44393,-0.46366 -6.3e-4,-0.11668 -0.0229,-0.29344 -0.0495,-0.39281 -0.0464,-0.17321 -0.0645,-0.1656 -0.4388,0.18452 -0.21472,0.20085 -0.55319,0.43718 -0.75215,0.52519 -0.45433,0.20097 -1.37459,0.26177 -1.86316,0.1231 z m 10.14104,0.0286 c -0.34819,-0.0851 -0.84859,-0.35909 -1.04967,-0.57467 -0.43248,-0.46364 -0.45797,-0.63295 -0.50071,-3.32606 l -0.0398,-2.50446 -0.53667,-0.0235 -0.53667,-0.0235 v -0.7083 -0.70829 l 0.53667,-0.0235 0.53667,-0.0235 0.0223,-0.97631 0.0223,-0.97632 1.01124,0.0222 1.01125,0.0222 0.0223,0.97395 0.0223,0.97396 h 0.71311 0.71312 v 0.71556 0.71556 h -0.71557 -0.71556 v 2.19167 c 0,1.4179 0.0303,2.24833 0.0859,2.35217 0.12943,0.24184 0.56214,0.39179 0.96947,0.33596 l 0.34914,-0.0479 0.0974,0.69612 c 0.0536,0.38286 0.0685,0.7239 0.0332,0.75786 -0.18757,0.1804 -1.53683,0.28496 -2.05187,0.15902 z m 6.64742,-0.0114 c -0.19204,-0.0377 -0.57414,-0.17385 -0.8491,-0.30252 -1.3161,-0.61587 -1.97006,-1.83291 -1.97006,-3.66632 0,-1.43164 0.33773,-2.31654 1.17679,-3.0834 0.75852,-0.69324 1.51963,-0.93586 2.73635,-0.87227 0.50688,0.0265 0.91367,0.0969 1.2031,0.20838 0.93605,0.36037 1.66746,1.15111 1.9953,2.15715 0.21387,0.65627 0.28332,1.84155 0.15313,2.61338 -0.35796,2.12225 -2.251,3.37658 -4.44551,2.9456 z m 1.64222,-1.71536 c 0.60344,-0.44701 0.84701,-1.19509 0.79884,-2.45347 -0.0294,-0.76785 -0.0639,-0.95001 -0.25292,-1.33644 -0.30237,-0.61801 -0.58324,-0.80097 -1.28208,-0.83512 -0.4806,-0.0235 -0.59476,-0.001 -0.83327,0.16034 -0.32939,0.22354 -0.60634,0.61383 -0.71618,1.00925 -0.12564,0.4523 -0.101,2.15824 0.0368,2.54883 0.28008,0.79382 0.78189,1.14329 1.573,1.09548 0.30135,-0.0182 0.53272,-0.0829 0.67581,-0.18887 z m -37.34935,1.09774 v -0.62411 l 0.53667,-0.11133 0.53667,-0.11132 0.0207,-3.71373 c 0.0235,-4.22747 0.10407,-3.76806 -0.70272,-4.00765 l -0.39129,-0.1162 v -0.63297 -0.63297 l 2.68336,6e-4 c 1.47584,3e-4 2.9096,0.0373 3.18612,0.0822 2.0256,0.32869 3.19753,1.82385 2.95602,3.77128 -0.17031,1.37325 -1.17875,2.38905 -2.68967,2.70928 -0.32239,0.0683 -1.00639,0.11299 -1.74308,0.11383 l -1.21248,0.002 v 1.22517 1.22517 l 0.55655,0.0939 0.55655,0.0939 v 0.62887 0.62887 h -2.14668 -2.14669 z m 5.78558,-4.98491 c 1.02684,-0.42905 1.34711,-1.7704 0.65188,-2.73015 -0.35957,-0.49635 -0.86379,-0.6451 -2.18684,-0.6451 h -1.07035 v 1.74915 1.74915 h 1.1554 c 0.86299,0 1.22993,-0.0311 1.44991,-0.12305 z m 4.78881,4.98887 v -0.62015 l 0.47704,-0.0985 0.47704,-0.0985 v -4.13373 c 0,-3.23661 -0.0216,-4.14079 -0.0994,-4.16629 -0.0547,-0.0179 -0.30511,-0.073 -0.55655,-0.1224 l -0.45716,-0.0898 v -0.67017 -0.67017 l 1.61001,-2e-5 1.61001,-1e-5 -0.0211,4.88624 c -0.0238,5.51858 -0.0907,4.98391 0.63725,5.09306 l 0.37765,0.0566 v 0.62703 0.62702 h -2.02742 -2.02742 z m 32.27973,-0.0954 v -0.71556 h 0.67581 0.67581 v 0.71556 0.71556 h -0.67581 -0.67581 z m 8.74574,0.28796 v -0.4276 l 0.57643,-0.11085 0.57642,-0.11084 0.0205,-4.50042 0.0205,-4.50042 -0.57708,-0.11069 -0.57707,-0.11068 -0.0237,-0.49543 -0.0237,-0.49542 h 1.31507 1.31507 l 0.0205,5.10653 0.0205,5.10653 0.57642,0.11084 0.57642,0.11085 v 0.4276 0.4276 h -1.90816 -1.90816 z M 221.31908,165.243 v -0.75532 h 0.71556 0.71556 v 0.75532 0.75531 h -0.71556 -0.71556 z"
       id="path21"
       inkscape:connector-curvature="0" />
    <g
       transform="matrix(0.33836816,0,0,0.33836816,150.81902,115.9107)"
       id="layer1-0"
       inkscape:label="Layer 1">
      <g
         transform="matrix(0.66542322,0,0,0.66542322,140.88249,87.132493)"
         id="g51">
        <circle
           style="fill:#d66661;stroke:#c93d39;stroke-width:3"
           cx="183.41008"
           cy="134.56754"
           r="16.5"
           id="circle18" />
        <circle
           style="fill:#aa7dc0;stroke:#945bb0;stroke-width:3"
           cx="183.41008"
           cy="114.32245"
           r="16.5"
           id="circle22" />
        <circle
           style="fill:#6bab5b;stroke:#3b972e;stroke-width:3"
           cx="183.41008"
           cy="94.077362"
           r="16.5"
           id="circle20" />
      </g>
    </g>
  </g>
</svg>
